<svg width="217" height="148" viewBox="0 0 217 148" fill="none" xmlns="http://www.w3.org/2000/svg">
<rect width="217" height="148" fill="#FFF0F3"/>
<path d="M117.899 83.8996L111.799 77.7996L109.109 75.1096L100.999 66.9996L99.5895 65.5896L98.0995 64.0996L96.6895 65.5096L98.9995 67.8296V80.9996C98.9995 82.0996 99.8995 82.9996 100.999 82.9996H114.169L116.479 85.3096L117.899 83.8996ZM100.999 80.9996V69.8296L107.839 76.6696L106.999 77.7196L104.999 74.9996L101.999 78.9996H110.169L112.169 80.9996H100.999ZM103.829 66.9996L101.829 64.9996H114.999C116.099 64.9996 116.999 65.8996 116.999 66.9996V80.1696L114.999 78.1696V66.9996H103.829Z" fill="#EE5070"/>
</svg>
