<svg width="37" height="31" viewBox="0 0 37 31" fill="none" xmlns="http://www.w3.org/2000/svg">
<path d="M28.046 9.74928C27.8078 9.78522 27.5922 9.91103 27.4394 10.0953C27.2731 10.293 27.1923 10.5581 27.2147 10.8097C27.2372 11.0568 27.354 11.277 27.5427 11.4298C27.7135 11.569 27.9157 11.6364 28.1224 11.6364C28.3965 11.6364 28.675 11.5151 28.8682 11.286C29.0345 11.0883 29.1154 10.8277 29.0929 10.576C29.0704 10.3289 28.9581 10.1087 28.7694 9.95147C28.5672 9.78522 28.3066 9.71333 28.046 9.74928Z" fill="#151219"/>
<path d="M20.6726 9.06292C20.5423 9.06292 20.412 9.03596 20.2907 8.97754C20.0705 8.8742 19.8998 8.68998 19.8189 8.45633C19.7335 8.21819 19.747 7.9441 19.8594 7.71045C19.9717 7.4768 20.1739 7.29257 20.412 7.2072C20.6457 7.12632 20.8973 7.1398 21.1175 7.24315C21.3331 7.34649 21.4994 7.53521 21.5803 7.76437C21.6656 8.007 21.6522 8.2766 21.5398 8.51025C21.3691 8.85623 21.0231 9.06292 20.6726 9.06292Z" fill="#151219"/>
<path fill-rule="evenodd" clip-rule="evenodd" d="M0.933753 30.2709H3.88582C4.25876 30.2709 4.55981 29.9698 4.55981 29.5969V29.206C6.0965 29.2149 11.2727 29.2734 15.7839 29.534C16.0176 29.5474 16.2468 29.5564 16.4804 29.5564C18.5158 29.5564 20.5288 29.0352 22.3441 28.0332L34.1074 21.0417C34.7455 20.6912 35.1678 20.0757 35.2712 19.3567C35.37 18.6378 35.1364 17.9324 34.6197 17.4202C33.9502 16.7462 32.9167 16.5619 32.054 16.9574L29.9422 17.9189C31.7575 15.8161 33.8423 13.6234 35.9317 12.0777C36.08 11.9654 36.1788 11.8036 36.2013 11.6194C36.2238 11.4351 36.1698 11.2509 36.053 11.1071C33.6222 8.14609 31.0475 5.62088 27.6956 2.92493C27.408 2.69128 26.9856 2.73621 26.752 3.02378C26.4519 3.38983 26.1494 3.76555 25.8462 4.14208C25.7363 4.27858 25.6263 4.41519 25.5163 4.55148C23.3461 3.17206 21.0545 1.93641 18.3496 0.691781C18.0126 0.539011 17.6127 0.682795 17.4554 1.01979C16.9073 2.19702 16.3231 3.4776 15.5728 5.17155C15.4579 5.43045 15.343 5.68803 15.2284 5.94506C15.0427 6.3615 14.8575 6.77683 14.6741 7.19352C14.054 8.57744 13.2408 10.3882 12.3915 12.1496C12.1175 12.7247 11.8389 13.2864 11.5603 13.839C10.8953 15.1376 10.2393 16.3148 9.60573 17.3573C7.43549 17.7122 5.62021 18.5345 4.54633 19.1186C4.49241 18.7996 4.21832 18.5569 3.88582 18.5569H0.933753C0.560814 18.5569 0.259766 18.858 0.259766 19.2309V29.5969C0.259766 29.9698 0.560814 30.2709 0.933753 30.2709ZM26.1094 5.96686L26.1858 5.86351C26.5812 5.36926 26.9766 4.87949 27.372 4.39422C30.1938 6.71274 32.4539 8.91893 34.5657 11.4262C31.8428 13.5739 29.2817 16.5395 27.098 19.2175L25.6916 19.86C26.1589 19.2624 26.6307 18.6693 27.1024 18.0807C29.1289 15.5465 30.6881 13.7357 32.1574 12.2215C32.2832 12.0912 32.3506 11.9159 32.3461 11.7362C32.3461 11.5565 32.2697 11.3857 32.1394 11.2644C32.063 11.1925 32.0181 11.0982 32.0181 10.9993C32.0136 10.9454 32.0271 10.8465 32.1079 10.7612C32.364 10.4916 32.3551 10.0692 32.09 9.80859C31.034 8.78862 29.8838 7.76416 28.5717 6.67679C28.2887 6.44314 27.8708 6.47909 27.6327 6.75767C27.5742 6.82058 27.5158 6.87 27.4439 6.90595C27.3181 6.96885 27.1833 6.97335 27.1024 6.91044C26.8149 6.68578 26.4015 6.73071 26.1679 7.01379C26.0271 7.18447 25.8864 7.35914 25.7456 7.53381C25.6753 7.62117 25.6047 7.70875 25.5343 7.79561L25.3411 8.03825C25.1437 8.28942 24.9453 8.53948 24.7468 8.78953L24.7458 8.7908C24.547 9.04128 24.3481 9.29189 24.1504 9.54349L23.5303 10.3253C22.7215 11.3633 21.9083 12.3967 21.086 13.4212L21.0815 13.4302C21.077 13.4302 21.077 13.4346 21.077 13.4346C21.0321 13.493 20.9827 13.5515 20.9332 13.6099L20.6456 13.9604C20.6456 13.9604 20.6232 13.9918 20.6097 14.0098L20.5917 14.0322C20.5189 14.1215 20.4464 14.2108 20.3739 14.3C20.1107 14.6237 19.8484 14.9464 19.5807 15.2634C19.5599 15.2843 19.5417 15.3106 19.5241 15.336C19.519 15.3434 19.5139 15.3507 19.5089 15.3578C19.0505 15.9149 18.5877 16.4586 18.1204 16.9888C17.7879 17.3797 17.4465 17.7572 17.1274 18.1076L17.0555 18.184C17.0343 18.2113 17.011 18.2366 16.987 18.2626C16.9755 18.2751 16.9638 18.2877 16.9522 18.3008C16.6107 18.2379 16.2692 18.1481 15.9367 18.0312C16.1074 17.8695 16.2692 17.7078 16.4174 17.5595C17.2037 16.7687 18.0396 15.87 18.9023 14.886C19.3156 14.4097 19.729 13.9289 20.1469 13.4346L20.2387 13.3239C20.5369 12.9646 20.8384 12.6012 21.1399 12.2305L21.2567 12.0867C21.9172 11.2768 22.5777 10.4428 23.2383 9.60879L23.5213 9.25143L23.5977 9.15707C23.8673 8.80659 24.1414 8.46061 24.42 8.11014L24.4514 8.0742L24.4985 8.01351C24.6529 7.81428 24.805 7.61808 24.9682 7.41818C25.3456 6.93291 25.7275 6.44764 26.1094 5.96686ZM30.8139 11.6778C29.9736 12.563 29.0975 13.547 28.1269 14.7017C28.0101 13.7357 27.5473 12.8865 26.8149 12.3068C26.0825 11.7317 25.1569 11.5205 24.2223 11.6284C24.3481 11.4711 24.4694 11.3183 24.5907 11.1611L25.2063 10.3792C25.4184 10.1147 25.6292 9.84889 25.8395 9.58384L25.8398 9.58345L25.8402 9.58291C26.0261 9.34855 26.2116 9.11478 26.397 8.88298L26.5902 8.64034L26.8868 8.26291C27.2687 8.35278 27.6776 8.29886 28.055 8.11014C28.0746 8.10036 28.0941 8.08823 28.112 8.07716C28.1187 8.07298 28.1253 8.06889 28.1314 8.06521C29.093 8.87399 29.9602 9.64683 30.7689 10.4107C30.6971 10.6084 30.6656 10.8151 30.6701 11.0308C30.6746 11.2554 30.724 11.4756 30.8139 11.6778ZM25.9836 13.3672C26.433 13.7267 26.7205 14.2659 26.7924 14.886C26.8823 15.6858 26.6127 16.544 26.051 17.2404C24.9816 18.5614 23.2562 18.9658 22.2003 18.1391C21.4814 17.5684 21.2163 16.5395 21.4949 15.506C21.5847 15.1645 21.7375 14.8365 21.9442 14.5265C21.9532 14.5175 21.9622 14.504 21.9712 14.4906C22.0206 14.4187 22.0745 14.3468 22.1329 14.2704C23.1978 12.9449 24.9277 12.5405 25.9836 13.3672ZM20.6322 18.3997H18.6731C18.7006 18.3691 18.728 18.3387 18.7554 18.3083L18.7879 18.2723C18.9067 18.1408 19.0248 18.0099 19.1404 17.874C19.4459 17.519 19.7515 17.1551 20.057 16.7911C20.1289 17.3797 20.3176 17.9279 20.6322 18.3997ZM19.2527 11.2374C19.4819 11.3363 19.6841 11.4846 19.8638 11.6598C19.6122 11.9654 19.3606 12.2709 19.1134 12.5674C18.7046 13.0527 18.2957 13.529 17.8868 13.9963C17.2173 14.7646 16.5658 15.4746 15.9367 16.1216C15.7076 15.8161 15.5413 15.4476 15.4649 15.0387C15.3481 14.3962 15.447 13.6908 15.7435 13.0572C16.4489 11.507 18.0261 10.6938 19.2527 11.2374ZM17.1184 9.97933L17.3611 9.44014C17.7565 8.55497 18.1564 7.66531 18.5518 6.78912L18.5967 6.68129C18.6439 6.57794 18.6911 6.47572 18.7383 6.3735C18.7854 6.27135 18.8327 6.16898 18.8798 6.06571C19.2977 6.05223 19.7155 5.87699 20.0346 5.57145C21.2702 6.16906 22.3351 6.73071 23.3416 7.30136L23.341 7.30209C23.0716 7.64333 22.8022 7.98457 22.5373 8.32132L22.4654 8.41568C21.8813 9.15258 21.2972 9.88497 20.713 10.6129C20.4435 10.3613 20.1379 10.1546 19.7964 10.0063C18.9472 9.62437 17.9991 9.64683 17.1184 9.97933ZM12.76 14.4501C13.0476 13.8885 13.3306 13.3178 13.6092 12.7337C14.4629 10.9544 15.2852 9.1346 15.9053 7.74169C16.2018 7.06771 16.4984 6.39821 16.8039 5.72422C17.424 4.32233 17.9272 3.208 18.3945 2.20151C20.7355 3.29787 22.7575 4.39871 24.6716 5.61189C24.5098 5.81858 24.3481 6.02527 24.1863 6.22747C22.9687 5.53101 21.6746 4.85703 20.1199 4.11564C19.9582 4.03925 19.774 4.03027 19.6032 4.08868C19.4325 4.15158 19.2977 4.2729 19.2213 4.43466C19.1134 4.65932 18.8843 4.76267 18.754 4.70426C18.417 4.55148 18.0216 4.70426 17.8688 5.03676C17.7026 5.39615 17.5364 5.76003 17.3702 6.12391L17.3206 6.23645C17.1436 6.63086 16.9665 7.02616 16.789 7.42237L16.7887 7.42313L16.7873 7.42618C16.569 7.91341 16.3502 8.40201 16.1299 8.89197C15.5952 10.0962 15.056 11.3093 14.5169 12.4956C14.1799 13.228 13.8429 13.9514 13.5014 14.6613C13.4982 14.6693 13.4944 14.678 13.4904 14.687C13.4833 14.703 13.4757 14.7204 13.4699 14.7377L13.3396 15.0118C13.2632 15.178 13.1824 15.3443 13.1015 15.5105C12.8094 16.1126 12.5308 16.6698 12.2523 17.2045C11.9198 17.1865 11.5917 17.1865 11.2682 17.1955C11.758 16.3463 12.2567 15.4341 12.76 14.4501ZM14.9752 17.0877C14.8265 17.2321 14.6737 17.3766 14.517 17.5248L14.4899 17.5505C14.2158 17.4786 13.9462 17.4247 13.6811 17.3752C13.8878 16.9663 14.0945 16.5485 14.3102 16.1036L14.3506 16.0228C14.5034 16.4137 14.7146 16.7731 14.9752 17.0877ZM4.55981 20.6733C5.764 19.9409 10.5358 17.3573 15.1819 19.195C16.1075 19.5634 17.0825 19.7477 18.0845 19.7477H21.8948C22.5373 19.7477 23.063 20.2734 23.063 20.9204C23.063 21.5674 22.5373 22.0886 21.8948 22.0886H12.5848C12.2118 22.0886 11.9108 22.3942 11.9108 22.7626C11.9108 23.1311 12.2118 23.4366 12.5848 23.4366H21.8948C22.8788 23.4366 23.728 22.8705 24.1459 22.0437L32.6112 18.184C32.9661 18.0223 33.393 18.0941 33.6671 18.3727C33.8783 18.5839 33.9771 18.876 33.9322 19.1725C33.8918 19.4646 33.7165 19.7207 33.4379 19.8735L21.6746 26.865C19.8908 27.849 17.8823 28.3073 15.8648 28.1905C11.3132 27.9254 6.0965 27.867 4.55981 27.858V20.6733ZM1.60774 19.9049H3.21183V28.9229H1.60774V19.9049Z" fill="#151219"/>
</svg>
