<svg width="132" height="72" viewBox="0 0 132 72" fill="none" xmlns="http://www.w3.org/2000/svg">
<g clip-path="url(#clip0_91_9555)">
<rect width="129.899" height="37.6188" transform="translate(1.05225 1)" fill="#F2F2F2"/>
<path d="M91.4994 25.4522C90.5018 25.4522 89.6704 25.2166 89.0053 24.7455C88.3541 24.2606 87.9246 23.5886 87.7167 22.7295L88.0077 22.6879V29.5258H85.8462V14.6654H87.9038V17.0971L87.696 17.0347C87.9176 16.2311 88.3887 15.6006 89.1093 15.1434C89.8298 14.6861 90.675 14.4575 91.6449 14.4575C92.6009 14.4575 93.4254 14.6861 94.1182 15.1434C94.8248 15.6006 95.3652 16.238 95.7393 17.0555C96.1273 17.873 96.3213 18.8291 96.3213 19.9237C96.3213 21.0321 96.1203 22.0021 95.7185 22.8334C95.3167 23.6648 94.7555 24.3091 94.035 24.7663C93.3145 25.2236 92.4693 25.4522 91.4994 25.4522ZM91.0422 23.6648C91.9844 23.6648 92.7326 23.3322 93.2868 22.6671C93.841 22.0021 94.1182 21.0876 94.1182 19.9237C94.1182 18.7736 93.841 17.8799 93.2868 17.2426C92.7326 16.5913 91.9774 16.2657 91.0214 16.2657C90.0792 16.2657 89.324 16.5983 88.7559 17.2633C88.2017 17.9146 87.9246 18.8221 87.9246 19.986C87.9246 21.1222 88.2017 22.0228 88.7559 22.6879C89.324 23.3392 90.0861 23.6648 91.0422 23.6648Z" fill="#823144"/>
<path d="M77.2489 25.4728C76.0019 25.4728 74.8865 25.1472 73.9027 24.496C72.9328 23.8309 72.1707 22.9164 71.6165 21.7525C71.0623 20.5748 70.7852 19.2307 70.7852 17.7204C70.7852 16.2102 71.0623 14.8869 71.6165 13.7507C72.1707 12.6007 72.9328 11.707 73.9027 11.0696C74.8865 10.4184 76.0019 10.0928 77.2489 10.0928C78.5098 10.0928 79.6252 10.4184 80.5951 11.0696C81.565 11.707 82.3271 12.6007 82.8814 13.7507C83.4356 14.8869 83.7127 16.2102 83.7127 17.7204C83.7127 19.2446 83.4356 20.5886 82.8814 21.7525C82.3271 22.9164 81.5581 23.8309 80.5743 24.496C79.6044 25.1472 78.496 25.4728 77.2489 25.4728ZM77.2489 22.8125C77.9556 22.8125 78.5375 22.5769 78.9948 22.1058C79.452 21.6347 79.7915 21.0112 80.0132 20.2353C80.2349 19.4594 80.3457 18.6142 80.3457 17.6997C80.3457 16.7852 80.2349 15.9538 80.0132 15.2056C79.7915 14.4574 79.452 13.8616 78.9948 13.4182C78.5375 12.9748 77.9556 12.7531 77.2489 12.7531C76.5423 12.7531 75.9603 12.9817 75.5031 13.439C75.0458 13.8824 74.7064 14.4782 74.4847 15.2264C74.263 15.9746 74.1521 16.799 74.1521 17.6997C74.1521 18.628 74.263 19.4801 74.4847 20.2561C74.7064 21.032 75.0458 21.6555 75.5031 22.1266C75.9742 22.5839 76.5561 22.8125 77.2489 22.8125Z" fill="#823144"/>
<path d="M63.9185 25.4728C62.7823 25.4728 61.7847 25.2858 60.9256 24.9117C60.0665 24.5375 59.3945 24.0179 58.9096 23.3529C58.4246 22.6878 58.1821 21.9119 58.1821 21.0251C58.1821 20.2769 58.3415 19.6118 58.6602 19.0298C58.9927 18.4479 59.4499 17.9906 60.0319 17.6581C60.6277 17.3256 61.3136 17.1593 62.0895 17.1593L62.422 17.5957C61.6045 17.5957 60.9117 17.4641 60.3436 17.2008C59.7756 16.9237 59.3391 16.5288 59.0343 16.0162C58.7433 15.5035 58.5978 14.9008 58.5978 14.208C58.5978 13.3766 58.8126 12.6561 59.2421 12.0465C59.6855 11.4229 60.3021 10.9449 61.0919 10.6124C61.8817 10.266 62.8169 10.0928 63.8977 10.0928C64.9784 10.0928 65.9137 10.266 66.7035 10.6124C67.4933 10.9449 68.103 11.4229 68.5325 12.0465C68.9759 12.6561 69.1976 13.3766 69.1976 14.208C69.1976 14.9008 69.0452 15.5035 68.7403 16.0162C68.4494 16.5288 68.0198 16.9237 67.4517 17.2008C66.8836 17.4641 66.1839 17.5957 65.3526 17.5957L65.7059 17.1593C66.4818 17.1593 67.1608 17.3256 67.7427 17.6581C68.3385 17.9906 68.7957 18.4479 69.1144 19.0298C69.447 19.6118 69.6132 20.2838 69.6132 21.0459C69.6132 21.9326 69.3708 22.7086 68.8858 23.3736C68.4147 24.0387 67.7496 24.5583 66.8906 24.9324C66.0454 25.2927 65.0547 25.4728 63.9185 25.4728ZM63.8977 23.0203C64.6321 23.0203 65.2001 22.8263 65.602 22.4384C66.0176 22.0504 66.2255 21.5031 66.2255 20.7965C66.2255 20.1037 66.0107 19.5633 65.5812 19.1753C65.1516 18.7873 64.5905 18.5934 63.8977 18.5934C63.191 18.5934 62.6229 18.7873 62.1934 19.1753C61.7777 19.5633 61.5699 20.1037 61.5699 20.7965C61.5699 21.517 61.7777 22.0712 62.1934 22.4592C62.6091 22.8333 63.1772 23.0203 63.8977 23.0203ZM63.8977 16.3487C64.4658 16.3487 64.93 16.1824 65.2902 15.8499C65.6505 15.5035 65.8306 15.0324 65.8306 14.4366C65.8306 13.8408 65.6505 13.3766 65.2902 13.0441C64.93 12.7115 64.4589 12.5453 63.8769 12.5453C63.3088 12.5453 62.8446 12.7185 62.4844 13.0649C62.138 13.3974 61.9648 13.8546 61.9648 14.4366C61.9648 15.0324 62.1449 15.5035 62.5052 15.8499C62.8793 16.1824 63.3435 16.3487 63.8977 16.3487Z" fill="#823144"/>
<path d="M50.5595 25.4728C49.3124 25.4728 48.197 25.1472 47.2133 24.496C46.2434 23.8309 45.4813 22.9164 44.9271 21.7525C44.3728 20.5748 44.0957 19.2307 44.0957 17.7204C44.0957 16.2102 44.3728 14.8869 44.9271 13.7507C45.4813 12.6007 46.2434 11.707 47.2133 11.0696C48.197 10.4184 49.3124 10.0928 50.5595 10.0928C51.8204 10.0928 52.9358 10.4184 53.9057 11.0696C54.8756 11.707 55.6377 12.6007 56.1919 13.7507C56.7461 14.8869 57.0233 16.2102 57.0233 17.7204C57.0233 19.2446 56.7461 20.5886 56.1919 21.7525C55.6377 22.9164 54.8687 23.8309 53.8849 24.496C52.915 25.1472 51.8065 25.4728 50.5595 25.4728ZM50.5595 22.8125C51.2661 22.8125 51.8481 22.5769 52.3053 22.1058C52.7626 21.6347 53.102 21.0112 53.3237 20.2353C53.5454 19.4594 53.6563 18.6142 53.6563 17.6997C53.6563 16.7852 53.5454 15.9538 53.3237 15.2056C53.102 14.4574 52.7626 13.8616 52.3053 13.4182C51.8481 12.9748 51.2661 12.7531 50.5595 12.7531C49.8528 12.7531 49.2709 12.9817 48.8136 13.439C48.3564 13.8824 48.0169 14.4782 47.7952 15.2264C47.5735 15.9746 47.4627 16.799 47.4627 17.6997C47.4627 18.628 47.5735 19.4801 47.7952 20.2561C48.0169 21.032 48.3564 21.6555 48.8136 22.1266C49.2847 22.5839 49.8667 22.8125 50.5595 22.8125Z" fill="#823144"/>
<path d="M39.3203 25.2652V13.0442L39.6736 13.356C39.4658 13.7855 39.1679 14.1874 38.7799 14.5615C38.3919 14.9217 37.9347 15.2335 37.4082 15.4967C36.8955 15.7461 36.3205 15.9332 35.6831 16.0579V12.9403C36.1958 12.871 36.7292 12.7048 37.2835 12.4415C37.8377 12.1644 38.3365 11.8388 38.7799 11.4647C39.2371 11.0767 39.5628 10.6887 39.7567 10.3008H42.4379V25.2652H39.3203Z" fill="#823144"/>
<path d="M94.8161 59.1015H96.2709C97.5595 59.1015 98.5502 58.6996 99.243 57.896C99.9497 57.0924 100.303 55.9562 100.303 54.4874C100.303 53.2404 99.9497 52.2428 99.243 51.4946C98.5364 50.7325 97.5388 50.3515 96.2502 50.3515H94.8161V59.1015ZM91.5322 47.7119H96.3541C98.4602 47.7119 100.185 48.3631 101.529 49.6656C102.873 50.9542 103.545 52.5615 103.545 54.4874C103.545 56.7321 102.88 58.4987 101.55 59.7873C100.234 61.0759 98.4879 61.7202 96.3125 61.7202H91.5322V47.7119Z" fill="#F2F2F2"/>
<path d="M85.6234 47.7119H88.8449V61.7202H85.6234V56.1294H80.4898V61.7202H77.2891V47.7119H80.4898V53.4067H85.6234V47.7119Z" fill="#F2F2F2"/>
<path d="M64.4103 59.8289H70.1466V61.7202H62.2695V47.7119H64.4103V59.8289Z" fill="#F2F2F2"/>
<path d="M54.4264 59.8289H60.1627V61.7202H52.2856V47.7119H54.4264V59.8289Z" fill="#F2F2F2"/>
<path d="M47.1426 56.3996V47.7119H49.2834V56.358C49.2834 58.1731 48.8123 59.5518 47.8701 60.494C46.9279 61.4362 45.6254 61.9073 43.9627 61.9073C42.3277 61.9073 41.0391 61.45 40.0969 60.5355C39.1547 59.6072 38.6836 58.2701 38.6836 56.5243V47.7119H40.8243V56.5035C40.8243 57.6951 41.1084 58.568 41.6765 59.1222C42.2584 59.6626 43.0205 59.9328 43.9627 59.9328C46.0826 59.9328 47.1426 58.7551 47.1426 56.3996Z" fill="#F2F2F2"/>
<path d="M36.3979 49.4993H30.5992V54.0926H35.6913V55.88H30.5992V61.7202H28.4585V47.7119H36.3979V49.4993Z" fill="#F2F2F2"/>
</g>
<rect x="1.05029" y="1" width="129.899" height="70" rx="7.79394" stroke="#F2F2F2" stroke-width="1.29899"/>
<defs>
<clipPath id="clip0_91_9555">
<rect x="1.05029" y="1" width="129.899" height="70" rx="7.79394" fill="white"/>
</clipPath>
</defs>
</svg>
