<svg width="132" height="72" viewBox="0 0 132 72" fill="none" xmlns="http://www.w3.org/2000/svg">
<g clip-path="url(#clip0_91_9556)">
<rect width="130.247" height="37.7195" transform="translate(0.874512 1)" fill="#F2F2F2"/>
<path d="M85.8441 25.5178C84.8438 25.5178 84.0103 25.2816 83.3434 24.8092C82.6904 24.323 82.2597 23.6492 82.0513 22.7878L82.3431 22.7461V29.6023H80.1758V14.702H82.2389V17.1403L82.0305 17.0778C82.2528 16.272 82.7252 15.6398 83.4476 15.1814C84.17 14.7229 85.0175 14.4937 85.99 14.4937C86.9486 14.4937 87.7753 14.7229 88.4699 15.1814C89.1785 15.6398 89.7203 16.2789 90.0954 17.0986C90.4844 17.9183 90.6789 18.8769 90.6789 19.9745C90.6789 21.0859 90.4775 22.0584 90.0746 22.892C89.6717 23.7256 89.109 24.3716 88.3866 24.8301C87.6641 25.2885 86.8166 25.5178 85.8441 25.5178ZM85.3857 23.7256C86.3304 23.7256 87.0806 23.3921 87.6363 22.7253C88.1921 22.0584 88.4699 21.1415 88.4699 19.9745C88.4699 18.8213 88.1921 17.9252 87.6363 17.2861C87.0806 16.6332 86.3234 16.3067 85.3648 16.3067C84.4201 16.3067 83.6629 16.6401 83.0933 17.307C82.5376 17.96 82.2597 18.87 82.2597 20.037C82.2597 21.1762 82.5376 22.0792 83.0933 22.7461C83.6629 23.3991 84.427 23.7256 85.3857 23.7256Z" fill="#823144"/>
<path d="M71.5543 25.5384C70.304 25.5384 69.1856 25.212 68.1992 24.559C67.2267 23.8921 66.4625 22.9752 65.9068 21.8082C65.3511 20.6273 65.0732 19.2796 65.0732 17.7653C65.0732 16.251 65.3511 14.9242 65.9068 13.7849C66.4625 12.6318 67.2267 11.7357 68.1992 11.0966C69.1856 10.4437 70.304 10.1172 71.5543 10.1172C72.8186 10.1172 73.937 10.4437 74.9095 11.0966C75.882 11.7357 76.6461 12.6318 77.2019 13.7849C77.7576 14.9242 78.0354 16.251 78.0354 17.7653C78.0354 19.2935 77.7576 20.6412 77.2019 21.8082C76.6461 22.9752 75.8751 23.8921 74.8887 24.559C73.9162 25.212 72.8047 25.5384 71.5543 25.5384ZM71.5543 22.871C72.2629 22.871 72.8464 22.6348 73.3049 22.1624C73.7633 21.6901 74.1037 21.0649 74.326 20.2869C74.5483 19.5089 74.6594 18.6614 74.6594 17.7445C74.6594 16.8275 74.5483 15.9939 74.326 15.2437C74.1037 14.4935 73.7633 13.8961 73.3049 13.4515C72.8464 13.0069 72.2629 12.7846 71.5543 12.7846C70.8458 12.7846 70.2623 13.0139 69.8038 13.4724C69.3453 13.9169 69.005 14.5143 68.7827 15.2646C68.5604 16.0148 68.4492 16.8414 68.4492 17.7445C68.4492 18.6753 68.5604 19.5297 68.7827 20.3077C69.005 21.0857 69.3453 21.7109 69.8038 22.1833C70.2762 22.6417 70.8597 22.871 71.5543 22.871Z" fill="#823144"/>
<path d="M53.2626 25.3301V22.8293C54.638 21.704 55.7842 20.7384 56.7011 19.9326C57.6319 19.1129 58.3683 18.3905 58.9101 17.7653C59.4658 17.1401 59.8618 16.5705 60.0979 16.0565C60.3341 15.5424 60.4522 15.0284 60.4522 14.5143C60.4522 13.903 60.2855 13.4307 59.9521 13.0972C59.6325 12.7499 59.181 12.5763 58.5975 12.5763C57.9862 12.5763 57.4791 12.7638 57.0762 13.1389C56.6733 13.514 56.4232 14.0281 56.326 14.681H53.1167C53.2695 13.264 53.8461 12.1525 54.8464 11.3467C55.8467 10.527 57.1387 10.1172 58.7225 10.1172C60.3341 10.1172 61.5914 10.534 62.4945 11.3676C63.3975 12.1872 63.8491 13.3334 63.8491 14.8061C63.8491 15.5007 63.731 16.1676 63.4948 16.8067C63.2725 17.4458 62.8974 18.1057 62.3694 18.7864C61.8415 19.4672 61.1191 20.2174 60.2021 21.0371C59.2991 21.8429 58.1668 22.7668 56.8053 23.8088L56.0342 22.871H64.1408V25.3301H53.2626Z" fill="#823144"/>
<path d="M43.9228 25.3301C44.1312 22.9544 44.7147 20.669 45.6733 18.4739C46.6458 16.265 47.8754 14.2366 49.3619 12.3888V12.7847H41.3179V10.3257H52.3837V12.618C51.4389 13.9657 50.6123 15.3202 49.9038 16.6817C49.1952 18.0433 48.6256 19.4395 48.1949 20.8705C47.7642 22.2876 47.4864 23.7741 47.3613 25.3301H43.9228Z" fill="#823144"/>
<path d="M70.4108 59.257H71.8696C73.1616 59.257 74.155 58.8541 74.8496 58.0483C75.5582 57.2425 75.9124 56.1033 75.9124 54.6306C75.9124 53.3802 75.5582 52.3799 74.8496 51.6297C74.1411 50.8656 73.1408 50.4835 71.8487 50.4835H70.4108V59.257ZM67.1182 47.8369H71.9529C74.0647 47.8369 75.7944 48.4899 77.142 49.7958C78.4896 51.0879 79.1634 52.6995 79.1634 54.6306C79.1634 56.8813 78.4965 58.6526 77.1628 59.9447C75.843 61.2367 74.0925 61.8828 71.9113 61.8828H67.1182V47.8369Z" fill="#F2F2F2"/>
<path d="M61.1892 47.8369H64.4193V61.8828H61.1892V56.2769H56.0418V61.8828H52.8325V47.8369H56.0418V53.5469H61.1892V47.8369Z" fill="#F2F2F2"/>
</g>
<rect x="0.876465" y="1" width="130.247" height="70" rx="7.81483" stroke="#F2F2F2" stroke-width="1.30247"/>
<defs>
<clipPath id="clip0_91_9556">
<rect x="0.876465" y="1" width="130.247" height="70" rx="7.81483" fill="white"/>
</clipPath>
</defs>
</svg>
