<svg width="80" height="80" viewBox="0 0 80 80" fill="none" xmlns="http://www.w3.org/2000/svg">
<path d="M59 24H53V14C52.9989 12.9395 52.5772 11.9227 51.8273 11.1727C51.0773 10.4228 50.0605 10.0011 49 10H21C19.9395 10.0011 18.9227 10.4228 18.1727 11.1727C17.4228 11.9227 17.0011 12.9395 17 14V66C17.0011 67.0605 17.4228 68.0773 18.1727 68.8273C18.9227 69.5772 19.9395 69.9989 21 70H49C50.0605 69.9989 51.0773 69.5772 51.8273 68.8273C52.5772 68.0773 52.9989 67.0605 53 66V58H59C60.0605 57.9989 61.0773 57.5772 61.8273 56.8273C62.5772 56.0773 62.9989 55.0605 63 54V28C62.9989 26.9395 62.5772 25.9227 61.8273 25.1727C61.0773 24.4228 60.0605 24.0011 59 24ZM40 12V13C39.9998 13.2652 39.8944 13.5194 39.7069 13.7069C39.5194 13.8944 39.2652 13.9998 39 14H31C30.7348 13.9998 30.4806 13.8944 30.2931 13.7069C30.1056 13.5194 30.0002 13.2652 30 13V12H40ZM51 66C50.9993 66.5302 50.7884 67.0385 50.4135 67.4135C50.0385 67.7884 49.5302 67.9993 49 68H21C20.4698 67.9993 19.9615 67.7884 19.5865 67.4135C19.2116 67.0385 19.0007 66.5302 19 66V14C19.0007 13.4698 19.2116 12.9615 19.5865 12.5865C19.9615 12.2116 20.4698 12.0007 21 12H28V13C28.0009 13.7954 28.3172 14.5579 28.8796 15.1204C29.4421 15.6828 30.2046 15.9991 31 16H39C39.7954 15.9991 40.5579 15.6828 41.1204 15.1204C41.6828 14.5579 41.9991 13.7954 42 13V12H49C49.5302 12.0007 50.0385 12.2116 50.4135 12.5865C50.7884 12.9615 50.9993 13.4698 51 14V24H25C23.9395 24.0011 22.9227 24.4228 22.1727 25.1727C21.4228 25.9227 21.0011 26.9395 21 28V54C21.0011 55.0605 21.4228 56.0773 22.1727 56.8273C22.9227 57.5772 23.9395 57.9989 25 58H51V66ZM61 54C60.9993 54.5302 60.7884 55.0385 60.4135 55.4135C60.0385 55.7884 59.5302 55.9993 59 56H25C24.4698 55.9993 23.9615 55.7884 23.5865 55.4135C23.2116 55.0385 23.0007 54.5302 23 54V28C23.0007 27.4698 23.2116 26.9615 23.5865 26.5865C23.9615 26.2116 24.4698 26.0007 25 26H59C59.5302 26.0007 60.0385 26.2116 60.4135 26.5865C60.7884 26.9615 60.9993 27.4698 61 28V54Z" fill="#823144"/>
<path d="M39 47H27C26.7348 47 26.4804 47.1054 26.2929 47.2929C26.1054 47.4804 26 47.7348 26 48C26 48.2652 26.1054 48.5196 26.2929 48.7071C26.4804 48.8946 26.7348 49 27 49H39C39.2628 48.9963 39.5135 48.8893 39.698 48.7022C39.8825 48.515 39.986 48.2628 39.986 48C39.986 47.7372 39.8825 47.485 39.698 47.2978C39.5135 47.1107 39.2628 47.0037 39 47Z" fill="#823144"/>
<path d="M34.9996 51H26.9996C26.7369 51.0037 26.4861 51.1107 26.3016 51.2978C26.1171 51.485 26.0137 51.7372 26.0137 52C26.0137 52.2628 26.1171 52.515 26.3016 52.7022C26.4861 52.8893 26.7369 52.9963 26.9996 53H34.9996C35.2624 52.9963 35.5131 52.8893 35.6976 52.7022C35.8822 52.515 35.9856 52.2628 35.9856 52C35.9856 51.7372 35.8822 51.485 35.6976 51.2978C35.5131 51.1107 35.2624 51.0037 34.9996 51Z" fill="#823144"/>
<path d="M30.9996 66H38.9996C39.2624 65.9963 39.5131 65.8893 39.6976 65.7022C39.8822 65.515 39.9856 65.2628 39.9856 65C39.9856 64.7372 39.8822 64.485 39.6976 64.2978C39.5131 64.1107 39.2624 64.0037 38.9996 64H30.9996C30.7369 64.0037 30.4861 64.1107 30.3016 64.2978C30.1171 64.485 30.0137 64.7372 30.0137 65C30.0137 65.2628 30.1171 65.515 30.3016 65.7022C30.4861 65.8893 30.7369 65.9963 30.9996 66Z" fill="#823144"/>
<path d="M52.3125 36.6846L54.0782 33.5886C54.2376 33.3092 54.5345 33.1367 54.8562 33.1367C55.5531 33.1367 55.983 33.8976 55.6233 34.4945L53.4678 38.0723L55.6812 41.7231C56.0448 42.323 55.613 43.0898 54.9115 43.0898C54.5893 43.0898 54.2916 42.9176 54.1311 42.6382L52.3125 39.4736L50.4798 42.6419C50.3194 42.9191 50.0235 43.0898 49.7032 43.0898C49.0037 43.0898 48.5733 42.3247 48.9366 41.7269L51.1572 38.0723L48.9968 34.4947C48.6365 33.898 49.0661 33.1367 49.7631 33.1367C50.0841 33.1367 50.3806 33.3086 50.5401 33.5873L52.3125 36.6846Z" fill="#823144"/>
<path d="M47.0146 41.4675C47.0146 41.6904 46.9434 41.9108 46.7811 42.0637C46.6605 42.1773 46.515 42.2961 46.3447 42.4199C46.0439 42.6387 45.6452 42.8278 45.1484 42.9873C44.6517 43.1468 44.0342 43.2266 43.2959 43.2266C42.4574 43.2266 41.7168 43.0397 41.0742 42.666C40.4316 42.2923 39.9303 41.7477 39.5703 41.0322C39.2103 40.3167 39.0303 39.4531 39.0303 38.4414V37.7852C39.0303 36.7734 39.1966 35.9098 39.5293 35.1943C39.8665 34.4788 40.3428 33.9342 40.958 33.5605C41.5732 33.1868 42.3024 33 43.1455 33C43.9795 33 44.6676 33.1367 45.21 33.4102C45.7523 33.6836 46.1693 34.0641 46.4609 34.5518C46.5906 34.7666 46.6987 34.9958 46.7851 35.2394C46.9645 35.7451 46.537 36.2197 46.0004 36.2197C45.5545 36.2197 45.1984 35.8793 45.0054 35.4773C44.9779 35.4199 44.9481 35.3643 44.916 35.3105C44.7656 35.0462 44.5492 34.8389 44.2666 34.6885C43.9886 34.5381 43.6286 34.4629 43.1865 34.4629C42.6761 34.4629 42.2477 34.5928 41.9014 34.8525C41.5596 35.1077 41.3021 35.4814 41.1289 35.9736C40.9603 36.4658 40.876 37.0651 40.876 37.7715V38.4414C40.876 39.1569 40.974 39.7607 41.1699 40.2529C41.3659 40.7451 41.6507 41.1211 42.0244 41.3809C42.3981 41.6361 42.8493 41.7637 43.3779 41.7637C43.7516 41.7637 44.057 41.734 44.2939 41.6748C44.5309 41.611 44.7201 41.5358 44.8613 41.4492C45.0072 41.3581 45.1165 41.2738 45.1895 41.1963V39.3096H43.877C43.4994 39.3096 43.1934 39.0035 43.1934 38.626C43.1934 38.2484 43.4994 37.9424 43.877 37.9424H46.0146C46.5669 37.9424 47.0146 38.3901 47.0146 38.9424V41.4675Z" fill="#823144"/>
<path d="M36.5796 33.1367C37.0836 33.1367 37.4922 33.5453 37.4922 34.0493V39.7539C37.4922 40.515 37.3258 41.153 36.9932 41.668C36.665 42.1829 36.2184 42.5726 35.6533 42.8369C35.0882 43.0967 34.4525 43.2266 33.7461 43.2266C33.026 43.2266 32.3812 43.0967 31.8115 42.8369C31.2464 42.5726 30.8021 42.1829 30.4785 41.668C30.1595 41.153 30 40.515 30 39.7539V34.0459C30 33.5438 30.4071 33.1367 30.9092 33.1367C31.4113 33.1367 31.8184 33.5438 31.8184 34.0459V39.7539C31.8184 40.2188 31.8958 40.5993 32.0508 40.8955C32.2057 41.1872 32.4268 41.4059 32.7139 41.5518C33.0055 41.693 33.3496 41.7637 33.7461 41.7637C34.1471 41.7637 34.4889 41.693 34.7715 41.5518C35.0586 41.4059 35.2796 41.1872 35.4346 40.8955C35.5895 40.5993 35.667 40.2188 35.667 39.7539V34.0493C35.667 33.5453 36.0756 33.1367 36.5796 33.1367Z" fill="#823144"/>
</svg>
