<svg width="132" height="72" viewBox="0 0 132 72" fill="none" xmlns="http://www.w3.org/2000/svg">
<g clip-path="url(#clip0_91_9557)">
<rect width="129.783" height="37.5853" transform="translate(1.11279 1)" fill="#F2F2F2"/>
<path d="M86.7805 25.4307C85.7838 25.4307 84.9531 25.1953 84.2887 24.7247C83.638 24.2401 83.2089 23.5687 83.0012 22.7104L83.2919 22.6689V29.5007H81.1323V14.6535H83.1881V17.083L82.9804 17.0207C83.2019 16.2178 83.6726 15.5879 84.3925 15.1311C85.1124 14.6742 85.9568 14.4458 86.9259 14.4458C87.8811 14.4458 88.7048 14.6742 89.3969 15.1311C90.103 15.5879 90.6429 16.2247 91.0166 17.0415C91.4043 17.8582 91.5981 18.8134 91.5981 19.9071C91.5981 21.0146 91.3973 21.9836 90.9959 22.8142C90.5944 23.6449 90.0337 24.2886 89.3139 24.7454C88.594 25.2023 87.7496 25.4307 86.7805 25.4307ZM86.3237 23.6449C87.265 23.6449 88.0126 23.3126 88.5663 22.6481C89.1201 21.9836 89.3969 21.0699 89.3969 19.9071C89.3969 18.7581 89.1201 17.8652 88.5663 17.2284C88.0126 16.5777 87.2581 16.2524 86.3029 16.2524C85.3615 16.2524 84.6071 16.5846 84.0395 17.2491C83.4857 17.8998 83.2089 18.8065 83.2089 19.9694C83.2089 21.1046 83.4857 22.0044 84.0395 22.6689C84.6071 23.3195 85.3685 23.6449 86.3237 23.6449Z" fill="#823144"/>
<path d="M72.543 25.4508C71.2971 25.4508 70.1827 25.1255 69.1998 24.4749C68.2307 23.8104 67.4693 22.8967 66.9156 21.7338C66.3618 20.5571 66.085 19.2143 66.085 17.7054C66.085 16.1964 66.3618 14.8743 66.9156 13.7392C67.4693 12.5902 68.2307 11.6972 69.1998 11.0604C70.1827 10.4098 71.2971 10.0845 72.543 10.0845C73.8028 10.0845 74.9172 10.4098 75.8862 11.0604C76.8553 11.6972 77.6167 12.5902 78.1704 13.7392C78.7241 14.8743 79.001 16.1964 79.001 17.7054C79.001 19.2281 78.7241 20.571 78.1704 21.7338C77.6167 22.8967 76.8483 23.8104 75.8654 24.4749C74.8964 25.1255 73.7889 25.4508 72.543 25.4508ZM72.543 22.7929C73.249 22.7929 73.8304 22.5575 74.2873 22.0868C74.7441 21.6162 75.0833 20.9932 75.3048 20.218C75.5263 19.4427 75.637 18.5983 75.637 17.6846C75.637 16.7709 75.5263 15.9403 75.3048 15.1927C75.0833 14.4452 74.7441 13.8499 74.2873 13.4069C73.8304 12.9639 73.249 12.7424 72.543 12.7424C71.837 12.7424 71.2555 12.9709 70.7987 13.4277C70.3419 13.8707 70.0027 14.466 69.7812 15.2135C69.5597 15.9611 69.4489 16.7848 69.4489 17.6846C69.4489 18.6121 69.5597 19.4635 69.7812 20.2387C70.0027 21.014 70.3419 21.6369 70.7987 22.1076C71.2694 22.5644 71.8508 22.7929 72.543 22.7929Z" fill="#823144"/>
<path d="M59.2234 25.4508C58.0883 25.4508 57.0915 25.2639 56.2332 24.8902C55.3749 24.5164 54.7035 23.9973 54.219 23.3328C53.7345 22.6683 53.4922 21.893 53.4922 21.007C53.4922 20.2595 53.6514 19.595 53.9698 19.0136C54.302 18.4321 54.7589 17.9753 55.3403 17.6431C55.9356 17.3108 56.6208 17.1447 57.3961 17.1447L57.7283 17.5808C56.9115 17.5808 56.2194 17.4493 55.6518 17.1862C55.0842 16.9094 54.6481 16.5148 54.3436 16.0026C54.0529 15.4904 53.9075 14.8882 53.9075 14.196C53.9075 13.3654 54.1221 12.6455 54.5512 12.0364C54.9942 11.4135 55.6103 10.9359 56.3993 10.6036C57.1884 10.2575 58.1229 10.0845 59.2027 10.0845C60.2825 10.0845 61.2169 10.2575 62.006 10.6036C62.7951 10.9359 63.4042 11.4135 63.8333 12.0364C64.2763 12.6455 64.4978 13.3654 64.4978 14.196C64.4978 14.8882 64.3455 15.4904 64.041 16.0026C63.7503 16.5148 63.3211 16.9094 62.7535 17.1862C62.1859 17.4493 61.4868 17.5808 60.6562 17.5808L61.0092 17.1447C61.7845 17.1447 62.4628 17.3108 63.0442 17.6431C63.6395 17.9753 64.0964 18.4321 64.4148 19.0136C64.747 19.595 64.9131 20.2664 64.9131 21.0278C64.9131 21.9138 64.6709 22.689 64.1863 23.3535C63.7157 24.018 63.0512 24.5372 62.1929 24.9109C61.3484 25.2709 60.3586 25.4508 59.2234 25.4508ZM59.2027 23.0005C59.9364 23.0005 60.504 22.8067 60.9054 22.4191C61.3207 22.0315 61.5284 21.4846 61.5284 20.7786C61.5284 20.0864 61.3138 19.5466 60.8847 19.1589C60.4555 18.7713 59.8948 18.5775 59.2027 18.5775C58.4966 18.5775 57.9291 18.7713 57.4999 19.1589C57.0846 19.5466 56.8769 20.0864 56.8769 20.7786C56.8769 21.4985 57.0846 22.0522 57.4999 22.4399C57.9152 22.8136 58.4828 23.0005 59.2027 23.0005ZM59.2027 16.3348C59.7702 16.3348 60.234 16.1687 60.5939 15.8365C60.9539 15.4904 61.1338 15.0197 61.1338 14.4244C61.1338 13.8292 60.9539 13.3654 60.5939 13.0332C60.234 12.7009 59.7633 12.5348 59.1819 12.5348C58.6143 12.5348 58.1505 12.7078 57.7906 13.0539C57.4445 13.3862 57.2715 13.843 57.2715 14.4244C57.2715 15.0197 57.4514 15.4904 57.8114 15.8365C58.1852 16.1687 58.6489 16.3348 59.2027 16.3348Z" fill="#823144"/>
<path d="M47.679 25.2435V21.2981L47.8451 20.8828V12.3482L49.1118 13.0335L43.0483 21.0697L41.574 19.9691H52.4135V22.4194H40.4111V19.9691L47.7621 10.2925H50.9184V25.2435H47.679Z" fill="#823144"/>
<path d="M68.8869 59.1323H70.3405C71.6279 59.1323 72.6177 58.7309 73.3099 57.928C74.0159 57.125 74.3689 55.9899 74.3689 54.5224C74.3689 53.2765 74.0159 52.2798 73.3099 51.5322C72.6039 50.7708 71.6071 50.3901 70.3197 50.3901H68.8869V59.1323ZM65.606 47.7529H70.4235C72.5277 47.7529 74.2513 48.4036 75.5941 49.7049C76.9369 50.9923 77.6083 52.5982 77.6083 54.5224C77.6083 56.7651 76.9438 58.5301 75.6149 59.8176C74.2997 61.105 72.5554 61.7488 70.382 61.7488H65.606V47.7529Z" fill="#F2F2F2"/>
<path d="M63.018 48.3759V51.3662C61.8967 50.7155 60.7338 50.3902 59.5294 50.3902C58.9895 50.3902 58.5742 50.5009 58.2835 50.7224C58.0066 50.9439 57.8682 51.2277 57.8682 51.5738C57.8682 51.9199 58.0412 52.2314 58.3873 52.5082C58.7334 52.7713 59.2526 53.0551 59.9447 53.3596C60.3739 53.5534 60.7269 53.7265 61.0038 53.8788C61.2945 54.0172 61.6198 54.2179 61.9797 54.481C62.3535 54.7301 62.6442 55.0001 62.8519 55.2908C63.0734 55.5677 63.2603 55.9138 63.4126 56.3291C63.5648 56.7444 63.641 57.1943 63.641 57.6788C63.641 58.9386 63.1772 59.963 62.2497 60.7521C61.3222 61.5273 60.0901 61.915 58.5535 61.915C56.9061 61.915 55.5633 61.6242 54.525 61.0428V57.8242C55.7847 58.7379 57.1276 59.1947 58.5535 59.1947C59.038 59.1947 59.4394 59.0701 59.7579 58.8209C60.0763 58.5579 60.2355 58.2187 60.2355 57.8034C60.2355 57.665 60.2147 57.5335 60.1732 57.4089C60.1316 57.2843 60.0555 57.1666 59.9447 57.0559C59.834 56.9451 59.7232 56.8551 59.6125 56.7859C59.5156 56.7028 59.3633 56.6129 59.1557 56.516C58.9618 56.4052 58.7957 56.3152 58.6573 56.246C58.5189 56.1768 58.3112 56.0799 58.0343 55.9553C57.7713 55.8307 57.5567 55.7338 57.3906 55.6646C56.4908 55.2493 55.764 54.7371 55.2102 54.1279C54.6703 53.5188 54.4004 52.709 54.4004 51.6984C54.4004 50.494 54.8434 49.525 55.7294 48.7913C56.6154 48.0437 57.8405 47.6699 59.4048 47.6699C60.803 47.6699 62.0074 47.9053 63.018 48.3759Z" fill="#F2F2F2"/>
</g>
<rect x="1.1084" y="1" width="129.783" height="70" rx="7.787" stroke="#F2F2F2" stroke-width="1.29783"/>
<defs>
<clipPath id="clip0_91_9557">
<rect x="1.1084" y="1" width="129.783" height="70" rx="7.787" fill="white"/>
</clipPath>
</defs>
</svg>
