<svg width="132" height="72" viewBox="0 0 132 72" fill="none" xmlns="http://www.w3.org/2000/svg">
<g clip-path="url(#clip0_91_9554)">
<rect width="129.86" height="37.6076" transform="translate(1.07031 1)" fill="#F2F2F2"/>
<path d="M63.52 29.5174L67.999 10.0903H72.1541L67.6752 29.5174H63.52ZM68.0529 19.696L78.9805 10.0903H85.1053L73.7191 19.4261L68.0529 19.696ZM76.0665 29.5174L69.1592 19.4261H73.7191L81.166 29.5174H76.0665Z" fill="#823144"/>
<path d="M55.5031 29.5174L56.6903 24.3908L57.0141 23.8512L59.5773 12.7616L61.4121 13.652L51.1051 24.094L49.1625 22.664H63.2199L62.4644 25.8479H46.896L47.6515 22.664L60.09 10.0903H64.1912L59.7123 29.5174H55.5031Z" fill="#823144"/>
<path d="M103.21 59.8943H105.412C107.005 59.8943 108.217 59.3956 109.049 58.3983C109.88 57.4009 110.295 56.1196 110.295 54.5544C110.295 53.1138 109.845 51.9156 108.945 50.9599C108.044 50.0041 106.846 49.5262 105.35 49.5262H103.21V59.8943ZM101.028 47.6978H105.392C107.469 47.6978 109.173 48.3419 110.503 49.6301C111.833 50.9183 112.498 52.5597 112.498 54.5544C112.498 56.6322 111.867 58.3429 110.607 59.6865C109.36 61.0301 107.636 61.7019 105.433 61.7019H101.028V47.6978Z" fill="#F2F2F2"/>
<path d="M95.8313 47.6978H97.9714V61.7019H95.8313V55.5725H89.5356V61.7019H87.3955V47.6978H89.5356V53.7233H95.8313V47.6978Z" fill="#F2F2F2"/>
<path d="M71.7828 56.2582H75.1487L75.0033 55.7595C74.6016 54.402 74.2692 53.2454 74.006 52.2896C73.7566 51.3338 73.6043 50.7174 73.5489 50.4404L73.4658 50.0249C73.3549 50.7867 72.8424 52.6983 71.9282 55.7595L71.7828 56.2582ZM76.7694 61.7019L75.9175 58.8346H71.014L70.1621 61.7019H66.8169L71.4919 47.6978H75.5227L80.1977 61.7019H76.7694Z" fill="#F2F2F2"/>
<path d="M58.1255 50.295V54.2427H59.6423C61.0275 54.2427 61.7201 53.564 61.7201 52.2065C61.7201 51.6109 61.54 51.1469 61.1799 50.8144C60.8197 50.4681 60.328 50.295 59.7046 50.295H58.1255ZM62.1356 61.7019L59.1021 56.8399H58.1255V61.7019H54.9258V47.6978H59.767C61.3322 47.6978 62.5858 48.1133 63.5277 48.9444C64.4835 49.7755 64.9614 50.856 64.9614 52.1857C64.9614 54.1804 64.1095 55.5586 62.4057 56.3205L65.9587 61.7019H62.1356Z" fill="#F2F2F2"/>
<path d="M52.9534 47.6978V50.2742H49.5458V61.7019H46.3253V50.2742H42.897V47.6978H52.9534Z" fill="#F2F2F2"/>
<path d="M36.6749 58.8969H41.8485V61.7019H33.4751V47.6978H36.6749V58.8969Z" fill="#F2F2F2"/>
<path d="M27.6815 56.2997V47.6978H30.8813V56.2789C30.8813 58.1074 30.3688 59.5064 29.3437 60.476C28.3187 61.4318 26.9335 61.9097 25.1882 61.9097C23.4706 61.9097 22.0923 61.4318 21.0534 60.476C20.0146 59.5203 19.4951 58.1697 19.4951 56.4244V47.6978H22.6949V56.4036C22.6949 58.1351 23.526 59.0008 25.1882 59.0008C26.8504 59.0008 27.6815 58.1004 27.6815 56.2997Z" fill="#F2F2F2"/>
</g>
<rect x="1.06982" y="1" width="129.86" height="70" rx="7.79163" stroke="#F2F2F2" stroke-width="1.29861"/>
<defs>
<clipPath id="clip0_91_9554">
<rect x="1.06982" y="1" width="129.86" height="70" rx="7.79163" fill="white"/>
</clipPath>
</defs>
</svg>
