<svg width="80" height="80" viewBox="0 0 80 80" fill="none" xmlns="http://www.w3.org/2000/svg">
<path d="M72 24H66V14C65.9989 12.9395 65.5772 11.9227 64.8273 11.1727C64.0773 10.4228 63.0605 10.0011 62 10H9C7.93946 10.0011 6.92266 10.4228 6.17274 11.1727C5.42283 11.9227 5.00106 12.9395 5 14V66C5.00106 67.0605 5.42283 68.0773 6.17274 68.8273C6.92266 69.5772 7.93946 69.9989 9 70H62C63.0605 69.9989 64.0773 69.5772 64.8273 68.8273C65.5772 68.0773 65.9989 67.0605 66 66V58H72C73.0605 57.9989 74.0773 57.5772 74.8273 56.8273C75.5772 56.0773 75.9989 55.0605 76 54V28C75.9989 26.9395 75.5772 25.9227 74.8273 25.1727C74.0773 24.4228 73.0605 24.0011 72 24ZM40 12V13C39.9998 13.2652 39.8944 13.5194 39.7069 13.7069C39.5194 13.8944 39.2652 13.9998 39 14H31C30.7348 13.9998 30.4806 13.8944 30.2931 13.7069C30.1056 13.5194 30.0002 13.2652 30 13V12H40ZM64 66C63.9993 66.5302 63.7884 67.0385 63.4135 67.4135C63.0385 67.7884 62.5302 67.9993 62 68H9C8.46978 67.9993 7.96147 67.7884 7.58655 67.4135C7.21162 67.0385 7.00069 66.5302 7 66V14C7.00069 13.4698 7.21162 12.9615 7.58655 12.5865C7.96147 12.2116 8.46978 12.0007 9 12H28V13C28.0009 13.7954 28.3172 14.5579 28.8796 15.1204C29.4421 15.6828 30.2046 15.9991 31 16H39C39.7954 15.9991 40.5579 15.6828 41.1204 15.1204C41.6828 14.5579 41.9991 13.7954 42 13V12H62C62.5302 12.0007 63.0385 12.2116 63.4135 12.5865C63.7884 12.9615 63.9993 13.4698 64 14V24H38C36.9395 24.0011 35.9227 24.4228 35.1727 25.1727C34.4228 25.9227 34.0011 26.9395 34 28V54C34.0011 55.0605 34.4228 56.0773 35.1727 56.8273C35.9227 57.5772 36.9395 57.9989 38 58H64V66ZM74 54C73.9993 54.5302 73.7884 55.0385 73.4135 55.4135C73.0385 55.7884 72.5302 55.9993 72 56H38C37.4698 55.9993 36.9615 55.7884 36.5865 55.4135C36.2116 55.0385 36.0007 54.5302 36 54V28C36.0007 27.4698 36.2116 26.9615 36.5865 26.5865C36.9615 26.2116 37.4698 26.0007 38 26H72C72.5302 26.0007 73.0385 26.2116 73.4135 26.5865C73.7884 26.9615 73.9993 27.4698 74 28V54Z" fill="#823144"/>
<path d="M52 47H40C39.7348 47 39.4804 47.1054 39.2929 47.2929C39.1054 47.4804 39 47.7348 39 48C39 48.2652 39.1054 48.5196 39.2929 48.7071C39.4804 48.8946 39.7348 49 40 49H52C52.2628 48.9963 52.5135 48.8893 52.698 48.7022C52.8825 48.515 52.986 48.2628 52.986 48C52.986 47.7372 52.8825 47.485 52.698 47.2978C52.5135 47.1107 52.2628 47.0037 52 47Z" fill="#823144"/>
<path d="M47.9996 51H39.9996C39.7369 51.0037 39.4861 51.1107 39.3016 51.2978C39.1171 51.485 39.0137 51.7372 39.0137 52C39.0137 52.2628 39.1171 52.515 39.3016 52.7022C39.4861 52.8893 39.7369 52.9963 39.9996 53H47.9996C48.2624 52.9963 48.5131 52.8893 48.6976 52.7022C48.8822 52.515 48.9856 52.2628 48.9856 52C48.9856 51.7372 48.8822 51.485 48.6976 51.2978C48.5131 51.1107 48.2624 51.0037 47.9996 51Z" fill="#823144"/>
<path d="M30.528 66H38.528C38.7907 65.9963 39.0415 65.8893 39.226 65.7022C39.4105 65.515 39.5139 65.2628 39.5139 65C39.5139 64.7372 39.4105 64.485 39.226 64.2978C39.0415 64.1107 38.7907 64.0037 38.528 64H30.528C30.2652 64.0037 30.0144 64.1107 29.8299 64.2978C29.6454 64.485 29.542 64.7372 29.542 65C29.542 65.2628 29.6454 65.515 29.8299 65.7022C30.0144 65.8893 30.2652 65.9963 30.528 66Z" fill="#823144"/>
<path d="M64.3126 36.6846L66.0783 33.5886C66.2377 33.3092 66.5347 33.1367 66.8563 33.1367C67.5532 33.1367 67.9831 33.8976 67.6235 34.4946L65.4679 38.0723L67.6813 41.7231C68.045 42.323 67.6131 43.0898 66.9116 43.0898C66.5894 43.0898 66.2918 42.9176 66.1312 42.6382L64.3126 39.4736L62.4799 42.6419C62.3195 42.9191 62.0235 43.0898 61.7033 43.0898C61.0037 43.0898 60.5733 42.3247 60.9366 41.7268L63.1573 38.0723L60.9968 34.4947C60.6365 33.8981 61.0662 33.1367 61.7631 33.1367C62.0842 33.1367 62.3807 33.3086 62.5401 33.5873L64.3126 36.6846Z" fill="#823144"/>
<path d="M59.0148 41.4675C59.0148 41.6904 58.9436 41.9108 58.7813 42.0637C58.6607 42.1773 58.5152 42.2961 58.3449 42.4199C58.0441 42.6387 57.6453 42.8278 57.1486 42.9873C56.6518 43.1468 56.0343 43.2266 55.296 43.2266C54.4574 43.2266 53.7169 43.0397 53.0743 42.666C52.4317 42.2923 51.9304 41.7477 51.5703 41.0322C51.2103 40.3167 51.0303 39.4531 51.0303 38.4414V37.7852C51.0303 36.7734 51.1966 35.9098 51.5293 35.1943C51.8666 34.4788 52.3428 33.9342 52.9581 33.5605C53.5733 33.1868 54.3025 33 55.1456 33C55.9796 33 56.6678 33.1367 57.2101 33.4102C57.7524 33.6836 58.1694 34.0641 58.4611 34.5518C58.5908 34.7666 58.6989 34.9958 58.7853 35.2394C58.9647 35.7451 58.5371 36.2197 58.0006 36.2197C57.5547 36.2197 57.1985 35.8793 57.0056 35.4773C56.978 35.4199 56.9482 35.3643 56.9162 35.3105C56.7658 35.0462 56.5493 34.8389 56.2667 34.6885C55.9887 34.5381 55.6287 34.4629 55.1866 34.4629C54.6762 34.4629 54.2478 34.5928 53.9014 34.8525C53.5596 35.1077 53.3021 35.4814 53.129 35.9736C52.9603 36.4658 52.876 37.0651 52.876 37.7715V38.4414C52.876 39.1569 52.974 39.7607 53.17 40.2529C53.3659 40.7451 53.6508 41.1211 54.0245 41.3809C54.3982 41.6361 54.8494 41.7637 55.378 41.7637C55.7517 41.7637 56.0571 41.734 56.2941 41.6748C56.5311 41.611 56.7202 41.5358 56.8615 41.4492C57.0073 41.3581 57.1167 41.2738 57.1896 41.1963V39.3096H55.877C55.4995 39.3096 55.1935 39.0035 55.1935 38.626C55.1935 38.2484 55.4995 37.9424 55.877 37.9424H58.0148C58.5671 37.9424 59.0148 38.3901 59.0148 38.9424V41.4675Z" fill="#823144"/>
<path d="M48.5797 33.1367C49.0838 33.1367 49.4924 33.5453 49.4924 34.0493V39.7539C49.4924 40.515 49.326 41.153 48.9933 41.668C48.6652 42.1829 48.2186 42.5726 47.6535 42.8369C47.0883 43.0967 46.4526 43.2266 45.7462 43.2266C45.0261 43.2266 44.3812 43.0967 43.8116 42.8369C43.2464 42.5726 42.8021 42.1829 42.4785 41.668C42.1595 41.153 42 40.515 42 39.7539V34.0459C42 33.5438 42.4071 33.1367 42.9092 33.1367C43.4113 33.1367 43.8184 33.5438 43.8184 34.0459V39.7539C43.8184 40.2188 43.8959 40.5993 44.0508 40.8955C44.2058 41.1872 44.4268 41.4059 44.7139 41.5518C45.0056 41.693 45.3497 41.7637 45.7462 41.7637C46.1472 41.7637 46.489 41.693 46.7716 41.5518C47.0587 41.4059 47.2797 41.1872 47.4347 40.8955C47.5896 40.5993 47.6671 40.2188 47.6671 39.7539V34.0493C47.6671 33.5453 48.0757 33.1367 48.5797 33.1367Z" fill="#823144"/>
</svg>
